<svg width="162" height="112" viewBox="0 0 162 112" fill="none" xmlns="http://www.w3.org/2000/svg">
<g clip-path="url(#clip0_73_35)">
<path d="M17.2019 34.4898L9.4841 38.4381C9.41544 38.4717 9.36036 38.5278 9.32806 38.597L5.52282 46.3864L5.49881 46.4108L5.48703 46.4473L5.47503 46.4595L5.46947 46.5141C5.46358 46.5323 5.46981 46.5504 5.47003 46.5747C5.47026 46.5989 5.47014 46.5868 5.47626 46.5928L5.48871 46.629C5.48902 46.6337 5.49027 46.6382 5.49239 46.6424C5.49451 46.6465 5.49746 46.6502 5.50105 46.6531C5.50116 46.6653 5.51338 46.6773 5.5135 46.6894L5.53184 46.7074C5.54059 46.7258 5.55313 46.7422 5.56863 46.7555L10.4593 51.5568C10.5242 51.6204 10.6117 51.6557 10.7026 51.6549C10.7934 51.6541 10.8803 51.6172 10.9439 51.5523C11.0076 51.4875 11.0429 51.4 11.0421 51.3091C11.0412 51.2182 11.0043 51.1314 10.9395 51.0677L6.41556 46.6265L9.94281 44.819C10.0612 45.5861 10.3521 46.3164 10.7936 46.9548C11.2351 47.5932 11.8157 48.1232 12.4916 48.5048C13.1676 48.8864 13.9213 49.1096 14.696 49.1578C15.4707 49.2059 16.2463 49.0777 16.9643 48.7828C16.0014 50.4767 15.7024 52.4679 16.1253 54.3699C16.1446 54.4589 16.1984 54.5366 16.275 54.5859C16.3516 54.6352 16.4446 54.652 16.5336 54.6327C16.6226 54.6134 16.7003 54.5596 16.7495 54.483C16.7988 54.4064 16.8157 54.3134 16.7964 54.2244C16.5377 53.0546 16.5752 51.8387 16.9055 50.687C17.2358 49.5354 17.8483 48.4844 18.6877 47.6294C19.527 46.7745 20.5665 46.1426 21.7118 45.7911C22.8572 45.4397 24.0722 45.3797 25.2466 45.6168C25.3031 45.6271 25.3613 45.6234 25.4161 45.606C25.4709 45.5886 25.5205 45.558 25.5607 45.5169C25.608 45.4688 25.6392 45.4071 25.6499 45.3404C25.666 45.252 25.6467 45.1608 25.5961 45.0865C25.5456 45.0121 25.4679 44.9607 25.3797 44.9431C23.4703 44.5554 21.4849 44.8911 19.809 45.885C20.0907 45.1617 20.2045 44.3839 20.1421 43.6102C20.0797 42.8365 19.8425 42.0871 19.4485 41.4183C19.0545 40.7495 18.514 40.1788 17.8675 39.7492C17.221 39.3196 16.4855 39.0422 15.7163 38.9379L17.6665 34.9459C17.6985 34.8812 17.7092 34.808 17.6971 34.7369C17.685 34.6657 17.6508 34.6002 17.5993 34.5496C17.5478 34.4991 17.4817 34.4661 17.4103 34.4553C17.339 34.4446 17.266 34.4566 17.2019 34.4898V34.4898ZM18.139 40.8481C18.649 41.3487 19.0312 41.9647 19.2531 42.644C19.475 43.3233 19.5302 44.0461 19.4141 44.7513C19.298 45.4565 19.0139 46.1233 18.5858 46.6956C18.1577 47.2679 17.5983 47.7288 16.9546 48.0394C16.311 48.3501 15.602 48.5012 14.8877 48.4803C14.1733 48.4593 13.4745 48.2667 12.8502 47.9189C12.2259 47.571 11.6944 47.078 11.3007 46.4816C10.907 45.8852 10.6625 45.2027 10.588 44.492L13.7052 42.8942L13.7955 42.8267L13.8613 42.7352L15.4013 39.589C16.4329 39.6758 17.4016 40.1213 18.139 40.8481V40.8481ZM14.8756 39.085L13.2942 42.3346L6.58935 45.7647L9.89515 38.9977L16.6 35.5676L14.8756 39.085Z" fill="white" fill-opacity="0.5"/>
</g>
<g clip-path="url(#clip1_73_35)">
<path d="M140.834 11.1031L138.877 10.7924C138.607 10.7496 138.353 10.9343 138.31 11.204L138.103 12.5089C138.06 12.7785 138.245 13.033 138.514 13.0758L140.472 13.3865C140.741 13.4293 140.996 13.2446 141.038 12.9749L141.246 11.67C141.288 11.4003 141.104 11.1459 140.834 11.1031ZM139.381 12.8791L138.566 12.7497C138.523 12.7428 138.484 12.719 138.458 12.6835C138.433 12.6481 138.422 12.6039 138.429 12.5606L138.636 11.2557C138.643 11.2125 138.667 11.1738 138.702 11.148C138.737 11.1223 138.782 11.1117 138.825 11.1184L139.641 11.2479L139.382 12.8792L139.381 12.8791ZM140.712 12.9234C140.705 12.9667 140.681 13.0054 140.646 13.0311C140.61 13.0568 140.566 13.0675 140.523 13.0607L139.707 12.9312L139.966 11.3L140.782 11.4294C140.825 11.4364 140.864 11.4602 140.89 11.4956C140.915 11.5311 140.926 11.5753 140.919 11.6185L140.712 12.9234V12.9234ZM140.29 14.5285L138.333 14.2178C138.063 14.175 137.809 14.3597 137.766 14.6294L137.559 15.9343C137.516 16.204 137.701 16.4584 137.97 16.5012L139.928 16.8119C140.197 16.8547 140.452 16.67 140.495 16.4003L140.702 15.0954C140.745 14.8257 140.56 14.5713 140.29 14.5285ZM138.838 16.3046L138.022 16.1751C137.979 16.1682 137.94 16.1444 137.915 16.1089C137.889 16.0735 137.878 16.0293 137.885 15.986L138.092 14.6811C138.099 14.6379 138.123 14.5992 138.158 14.5735C138.194 14.5477 138.238 14.5371 138.281 14.5439L139.097 14.6733L138.838 16.3046L138.838 16.3046ZM140.168 16.3485C140.161 16.3917 140.138 16.4304 140.102 16.4562C140.067 16.4819 140.022 16.4926 139.979 16.4858L139.164 16.3563L139.423 14.725L140.238 14.8545C140.281 14.8615 140.32 14.8853 140.346 14.9207C140.372 14.9561 140.382 15.0003 140.375 15.0436L140.168 16.3485ZM139.772 17.7907L137.815 17.48C137.545 17.4372 137.291 17.6219 137.248 17.8916L137.041 19.1965C136.998 19.4662 137.183 19.7206 137.453 19.7634L139.41 20.0741C139.68 20.1169 139.934 19.9322 139.977 19.6625L140.184 18.3576C140.227 18.088 140.042 17.8335 139.772 17.7907ZM138.32 19.5668L137.504 19.4374C137.461 19.4304 137.422 19.4066 137.397 19.3712C137.371 19.3357 137.36 19.2915 137.367 19.2483L137.574 17.9434C137.581 17.9001 137.605 17.8614 137.64 17.8357C137.676 17.8099 137.72 17.7993 137.763 17.8061L138.579 17.9355L138.32 19.5668L138.32 19.5668ZM139.65 19.6107C139.644 19.6539 139.62 19.6927 139.584 19.7184C139.549 19.7441 139.505 19.7548 139.461 19.748L138.646 19.6185L138.905 17.9872L139.72 18.1167C139.764 18.1237 139.802 18.1475 139.828 18.1829C139.854 18.2184 139.864 18.2625 139.858 18.3058L139.65 19.6107ZM152.663 13.4827L152.456 14.7876C152.413 15.0573 152.598 15.3117 152.868 15.3545L154.825 15.6652C155.095 15.708 155.349 15.5233 155.392 15.2536L155.599 13.9487C155.642 13.6791 155.457 13.4246 155.187 13.3818L153.23 13.0711C153.1 13.0506 152.968 13.0825 152.861 13.1596C152.755 13.2368 152.684 13.353 152.663 13.4827V13.4827ZM154.32 13.5785L155.136 13.7079C155.179 13.7149 155.218 13.7387 155.244 13.7741C155.269 13.8096 155.28 13.8538 155.273 13.897L155.066 15.2019C155.059 15.2452 155.035 15.2839 155 15.3096C154.964 15.3353 154.92 15.346 154.877 15.3392L154.061 15.2097L154.32 13.5785V13.5785ZM153.735 15.1576L152.919 15.0281C152.876 15.0212 152.837 14.9974 152.812 14.9619C152.786 14.9265 152.775 14.8823 152.782 14.839L152.989 13.5341C152.996 13.4909 153.02 13.4522 153.055 13.4264C153.091 13.4007 153.135 13.3901 153.178 13.3968L153.994 13.5263L153.735 15.1576ZM154.644 16.807L152.687 16.4963C152.417 16.4534 152.163 16.6382 152.12 16.9078L151.913 18.2127C151.87 18.4824 152.055 18.7368 152.324 18.7796L154.282 19.0903C154.551 19.1331 154.806 18.9484 154.848 18.6787L155.056 17.3739C155.098 17.1042 154.914 16.8498 154.644 16.807ZM153.191 18.583L152.376 18.4535C152.332 18.4466 152.294 18.4228 152.268 18.3873C152.242 18.3519 152.232 18.3077 152.238 18.2644L152.445 16.9595C152.452 16.9163 152.476 16.8776 152.512 16.8518C152.547 16.8261 152.591 16.8155 152.635 16.8222L153.45 16.9517L153.191 18.583ZM154.522 18.6269C154.515 18.6702 154.491 18.7089 154.456 18.7346C154.42 18.7604 154.376 18.771 154.333 18.7642L153.517 18.6348L153.776 17.0035L154.592 17.1329C154.635 17.1399 154.674 17.1637 154.7 17.1991C154.725 17.2346 154.736 17.2788 154.729 17.322L154.522 18.6269ZM154.126 20.0692L152.169 19.7585C151.899 19.7157 151.645 19.9004 151.602 20.1701L151.395 21.4749C151.352 21.7446 151.537 21.999 151.806 22.0419L153.764 22.3526C154.033 22.3954 154.288 22.2106 154.331 21.941L154.538 20.6361C154.581 20.3664 154.396 20.112 154.126 20.0692ZM152.673 21.8452L151.858 21.7158C151.815 21.7088 151.776 21.685 151.75 21.6496C151.724 21.6141 151.714 21.5699 151.721 21.5266L151.928 20.2218C151.935 20.1785 151.958 20.1398 151.994 20.1141C152.029 20.0883 152.073 20.0777 152.117 20.0845L152.932 20.2139L152.673 21.8452ZM154.004 21.8892C153.997 21.9324 153.973 21.9711 153.938 21.9969C153.903 22.0226 153.858 22.0332 153.815 22.0265L153 21.897L153.258 20.2657L154.074 20.3952C154.117 20.4021 154.156 20.4259 154.182 20.4614C154.208 20.4968 154.218 20.541 154.211 20.5843L154.004 21.8892ZM143.356 13.8908C143.183 13.7997 143.107 13.7513 143.12 13.6706C143.131 13.6052 143.207 13.5595 143.347 13.5818C143.486 13.6038 143.582 13.6555 143.635 13.6888L143.744 13.4696C143.635 13.4068 143.515 13.3656 143.39 13.3482C143.054 13.2948 142.825 13.4279 142.791 13.6433C142.762 13.8267 142.897 13.9678 143.123 14.0784C143.285 14.1595 143.346 14.2159 143.333 14.2945C143.32 14.377 143.233 14.4188 143.085 14.3953C142.948 14.3736 142.822 14.3135 142.741 14.2601L142.638 14.486C142.712 14.538 142.867 14.6011 143.03 14.6269C143.42 14.689 143.633 14.5382 143.666 14.3263C143.695 14.1482 143.595 14.0132 143.356 13.8908V13.8908ZM144.718 13.8015C144.832 13.8196 144.919 13.856 144.981 13.891L145.082 13.6749C145.029 13.6394 144.907 13.5894 144.74 13.5629C144.309 13.4944 143.924 13.6791 143.856 14.1106C143.799 14.4708 144.009 14.7824 144.502 14.8606C144.675 14.8882 144.813 14.8815 144.876 14.8644L144.863 14.6336C144.772 14.6471 144.679 14.6467 144.588 14.6324C144.301 14.5868 144.157 14.4003 144.197 14.1473C144.242 13.8662 144.462 13.761 144.718 13.8015V13.8015ZM146.059 14.2913L145.529 14.207L145.606 13.7213L145.283 13.67L145.082 14.9335L145.405 14.9848L145.489 14.4558L146.02 14.5401L145.936 15.069L146.257 15.12L146.458 13.8565L146.136 13.8055L146.059 14.2913ZM147.369 13.9802C146.949 13.9135 146.632 14.1531 146.572 14.5317C146.514 14.8918 146.716 15.2143 147.139 15.2814C147.555 15.3475 147.878 15.1408 147.944 14.7271C147.999 14.3776 147.807 14.0496 147.369 13.9802ZM147.192 15.0572C146.977 15.023 146.873 14.8276 146.913 14.5801C146.952 14.3345 147.108 14.1709 147.325 14.2054C147.547 14.2406 147.639 14.4553 147.603 14.6821C147.564 14.9278 147.409 15.0917 147.192 15.0572ZM148.885 14.2208C148.464 14.154 148.147 14.3937 148.087 14.7722C148.03 15.1324 148.232 15.4549 148.654 15.5219C149.071 15.5881 149.394 15.3814 149.46 14.9677C149.515 14.6183 149.322 14.2901 148.885 14.2208V14.2208ZM148.707 15.2977C148.492 15.2635 148.389 15.068 148.428 14.8206C148.467 14.575 148.623 14.4114 148.84 14.4459C149.062 14.4812 149.154 14.6958 149.118 14.9226C149.079 15.1683 148.925 15.3323 148.707 15.2977ZM150.092 14.4334L149.769 14.3821L149.568 15.6456L150.458 15.7868L150.496 15.5467L149.93 15.4568L150.092 14.4334ZM149.497 11.3078C149.593 10.7021 149.445 10.083 149.084 9.58674C148.724 9.09047 148.181 8.75766 147.576 8.66151C146.97 8.56537 146.351 8.71377 145.855 9.07407C145.358 9.43437 145.026 9.97705 144.93 10.5827C144.833 11.1884 144.982 11.8075 145.342 12.3037C145.702 12.8 146.245 13.1328 146.851 13.229C147.456 13.3251 148.076 13.1767 148.572 12.8164C149.068 12.4561 149.401 11.9134 149.497 11.3078V11.3078ZM145.582 10.6864C145.651 10.2536 145.889 9.86596 146.244 9.60862C146.598 9.35127 147.041 9.24534 147.473 9.31412C147.906 9.38291 148.294 9.62077 148.551 9.97539C148.808 10.33 148.914 10.7723 148.845 11.205C148.777 11.6378 148.539 12.0254 148.184 12.2828C147.83 12.5401 147.387 12.6461 146.955 12.5773C146.522 12.5085 146.134 12.2706 145.877 11.916C145.619 11.5614 145.514 11.1191 145.582 10.6864Z" fill="white" fill-opacity="0.5"/>
<path d="M147.488 11.3234L147.695 10.0185C147.724 9.83895 147.6 9.6688 147.421 9.6403C147.241 9.61179 147.071 9.73533 147.042 9.91488L146.887 10.8937L146.561 10.8419C146.381 10.8134 146.211 10.9369 146.182 11.1165C146.154 11.296 146.277 11.4662 146.457 11.4947L147.11 11.5983C147.196 11.6116 147.285 11.5902 147.355 11.5387C147.426 11.4872 147.474 11.4098 147.488 11.3234Z" fill="white" fill-opacity="0.5"/>
<path d="M155.566 23.6421L155.239 23.5903L156.896 13.1512L157.117 13.1862C157.484 13.2445 157.691 13.008 157.578 12.6611L156.84 10.396C156.727 10.0491 156.334 9.71743 155.967 9.65922L150.449 8.78324L148.274 6.36759L148.401 5.57073C149.54 6.81899 151.367 3.74198 152.506 4.99059C151.494 2.9413 149.795 5.21694 148.782 3.16765L148.834 2.8416C148.863 2.66211 148.739 2.49195 148.56 2.46345C148.38 2.43495 148.21 2.55848 148.182 2.73804L147.622 6.26437L144.806 7.88795L139.288 7.01209C138.921 6.95381 138.445 7.14754 138.23 7.44235L136.827 9.36752C136.612 9.66228 136.736 9.95129 137.103 10.0096L137.323 10.0446L135.666 20.4837L135.34 20.4319C135.253 20.4183 135.165 20.4396 135.094 20.491C135.023 20.5424 134.976 20.6197 134.962 20.7061L134.858 21.3586C134.845 21.4451 134.866 21.5334 134.918 21.6042C134.969 21.675 135.046 21.7225 135.133 21.7364L155.359 24.947C155.445 24.9604 155.533 24.9391 155.604 24.8877C155.675 24.8363 155.722 24.759 155.736 24.6727L155.84 24.0202C155.854 23.9337 155.832 23.8454 155.781 23.7746C155.73 23.7037 155.652 23.6561 155.566 23.6421V23.6421ZM140.233 21.2082L136.319 20.5869L137.976 10.1477L141.085 10.6414C141.083 10.6991 141.085 10.7548 141.095 10.8066C141.142 11.0585 141.35 11.3522 141.787 11.4216L140.234 21.2083L140.233 21.2082ZM148.789 23.4918L141.83 22.3871L141.913 21.8651L148.872 22.9698L148.789 23.4918ZM143.495 21.7261L144.117 17.8114L145.911 18.0962L145.29 22.0109L143.495 21.7261ZM145.616 22.0627L146.237 18.148L148.031 18.4328L147.41 22.3475L145.616 22.0627ZM150.02 22.7617L148.063 22.451L148.684 18.5364L149.336 18.6399L149.44 17.9854C149.44 17.9854 147.413 16.2749 146.782 15.6557C146.701 15.5796 146.599 15.5296 146.489 15.5122C146.379 15.4947 146.266 15.5105 146.165 15.5576C145.373 15.951 142.916 16.9498 142.916 16.9498L142.812 17.6043L143.464 17.7078L142.843 21.6225L140.886 21.3118L142.543 10.8727L141.89 10.7691C141.711 10.7406 141.692 10.6418 141.849 10.5499L147.55 7.19761C147.628 7.15189 147.724 7.13788 147.815 7.15235C147.907 7.16682 147.993 7.20983 148.054 7.27759L152.437 12.2306C152.557 12.3663 152.509 12.4547 152.329 12.4262L151.677 12.3226L150.02 22.7617ZM154.587 23.4867L150.672 22.8653L152.226 13.0786C152.663 13.1481 152.951 12.933 153.074 12.7082C153.1 12.6619 153.119 12.6097 153.135 12.554L156.244 13.0476L154.587 23.4868L154.587 23.4867Z" fill="white" fill-opacity="0.5"/>
<path d="M144.831 19.7642L145.3 19.8386L145.263 20.0756L144.793 20.0011L144.831 19.7642ZM146.279 19.9939L146.748 20.0684L146.71 20.3054L146.241 20.2309L146.279 19.9939Z" fill="white" fill-opacity="0.5"/>
</g>
<path d="M88.9986 53.329L80.1206 57.5135L88.9986 60.3075L97.8796 56.2785L88.9986 53.329V53.329Z" stroke="white" stroke-opacity="0.5" stroke-linecap="round" stroke-linejoin="round"/>
<path d="M80.1206 60.695L88.9986 63.4895L97.8796 59.46" stroke="white" stroke-opacity="0.5" stroke-linecap="round" stroke-linejoin="round"/>
<path d="M80.1209 57.5135C78.9154 58.006 79.0049 60.344 80.1209 60.6955M80.1204 63.877L88.9984 66.671L97.8794 62.642L80.1204 63.877ZM89.1304 55.593L91.3694 56.3365L89.1304 55.593Z" stroke="white" stroke-opacity="0.5" stroke-linecap="round" stroke-linejoin="round"/>
<path d="M97.8789 62.6424C99.0844 62.1499 98.9949 59.8114 97.8789 59.4604" stroke="white" stroke-opacity="0.5" stroke-linecap="round" stroke-linejoin="round"/>
<g clip-path="url(#clip2_73_35)">
<path d="M65.6045 89.117L51.6396 82.0886C51.3871 81.9615 51.0945 81.9399 50.826 82.0286C50.5576 82.1173 50.3354 82.309 50.2083 82.5615L44.4578 93.9873C44.3307 94.2398 44.3091 94.5325 44.3978 94.8009C44.4865 95.0693 44.6782 95.2915 44.9307 95.4186L45.994 95.9538C46.0544 95.9826 46.1216 95.9943 46.1882 95.9874C46.2548 95.9806 46.3182 95.9556 46.3715 95.915C47.0612 95.3771 47.8895 95.046 48.76 94.9604C49.6305 94.8747 50.5075 95.038 51.2888 95.4313C52.0701 95.8245 52.7238 96.4315 53.1736 97.1817C53.6235 97.9319 53.8511 98.7944 53.83 99.6688C53.8292 99.7358 53.8468 99.8016 53.881 99.8592C53.9152 99.9167 53.9646 99.9638 54.0238 99.9951L58.8956 102.447C59.1481 102.574 59.4408 102.596 59.7092 102.507C59.9776 102.418 60.1998 102.227 60.3269 101.974L66.0774 90.5483C66.2045 90.2958 66.2261 90.0031 66.1374 89.7347C66.0487 89.4663 65.857 89.244 65.6045 89.117V89.117ZM59.6922 101.655C59.6498 101.739 59.5757 101.803 59.4863 101.832C59.3968 101.862 59.2992 101.855 59.215 101.812L54.5416 99.4601C54.5104 98.0688 53.9399 96.7441 52.9504 95.7655C53.6491 95.7163 54.3123 95.4392 54.8382 94.9766C55.3641 94.5139 55.7236 93.8914 55.8614 93.2047C55.9992 92.518 55.9077 91.805 55.601 91.1753C55.2943 90.5456 54.7893 90.034 54.1637 89.7191C53.538 89.4042 52.8263 89.3035 52.1378 89.4323C51.4494 89.5611 50.8222 89.9125 50.3528 90.4323C49.8834 90.9521 49.5976 91.6117 49.5393 92.3097C49.4811 93.0077 49.6536 93.7055 50.0305 94.2959C48.655 94.0842 47.2511 94.4153 46.1151 95.2192L45.2502 94.7839C45.1677 94.7398 45.1053 94.6657 45.0759 94.5769C45.0466 94.488 45.0525 94.3913 45.0926 94.3068L50.8431 82.881C50.8854 82.7968 50.9595 82.7329 51.049 82.7034C51.1384 82.6738 51.236 82.681 51.3202 82.7233L65.285 89.7517C65.3692 89.7941 65.4331 89.8682 65.4626 89.9576C65.4922 90.0471 65.485 90.1447 65.4426 90.2288L59.6922 101.655ZM51.6062 94.8006C51.1668 94.5794 50.8029 94.233 50.5604 93.805C50.3179 93.377 50.2078 92.8867 50.2439 92.3961C50.2801 91.9055 50.4609 91.4366 50.7635 91.0488C51.0661 90.661 51.477 90.3716 51.9441 90.2173C52.4111 90.063 52.9135 90.0506 53.3876 90.1818C53.8617 90.313 54.2863 90.5818 54.6076 90.9542C54.9289 91.3267 55.1326 91.7861 55.1928 92.2743C55.2531 92.7625 55.1672 93.2577 54.9461 93.6971C54.6477 94.2846 54.1292 94.7303 53.5035 94.9371C52.8779 95.1438 52.1959 95.0947 51.6062 94.8006V94.8006ZM62.5799 91.1747L58.7463 98.7919C58.7039 98.8761 58.6299 98.94 58.5404 98.9695C58.4509 98.9991 58.3533 98.9919 58.2692 98.9495L56.9996 98.3106C56.9155 98.2682 56.8516 98.1942 56.822 98.1047C56.7924 98.0152 56.7996 97.9177 56.842 97.8335C56.8844 97.7493 56.9584 97.6854 57.0479 97.6558C57.1374 97.6263 57.2349 97.6335 57.3191 97.6758L58.2713 98.155L61.7854 91.1726L52.264 86.3806L51.7848 87.3327C51.7424 87.4169 51.6683 87.4808 51.5789 87.5103C51.4894 87.5399 51.3918 87.5327 51.3076 87.4904C51.2235 87.448 51.1596 87.3739 51.13 87.2844C51.1004 87.195 51.1076 87.0974 51.15 87.0132L51.7889 85.7437C51.8313 85.6595 51.9054 85.5956 51.9948 85.5661C52.0843 85.5365 52.1819 85.5437 52.2661 85.5861L62.4223 90.6976C62.5065 90.74 62.5704 90.814 62.5999 90.9035C62.6295 90.993 62.6223 91.0905 62.5799 91.1747Z" fill="white" fill-opacity="0.5"/>
</g>
<g clip-path="url(#clip3_73_35)">
<path d="M110.594 86.4253L105.259 87.8365L104.907 86.5085C104.81 86.1403 104.433 85.921 104.065 86.0184C103.697 86.1158 103.477 86.4928 103.575 86.861L103.926 88.1886L98.5954 89.5986L98.2442 88.2709C98.1468 87.9028 97.7698 87.6834 97.4016 87.7808C97.0335 87.8782 96.8142 88.2552 96.9115 88.6234L97.2627 89.9511L91.9367 91.3598C91.2008 91.5544 90.7619 92.309 90.9566 93.0449L95.3626 109.703C95.5573 110.439 96.3118 110.878 97.0478 110.683L115.705 105.749C116.441 105.554 116.88 104.799 116.685 104.063L112.279 87.4051C112.085 86.6695 111.33 86.2306 110.594 86.4253V86.4253ZM115.353 104.416L96.6953 109.351L92.2892 92.6924L97.6152 91.2837L97.7928 91.955C97.8901 92.3232 98.2672 92.5425 98.6353 92.4451C99.0035 92.3477 99.2228 91.9707 99.1254 91.6026L98.9479 90.9316L104.279 89.5216L104.456 90.1929C104.554 90.5611 104.931 90.7804 105.299 90.683C105.667 90.5856 105.886 90.2086 105.789 89.8404L105.611 89.1691L110.947 87.7579L115.353 104.416ZM108.221 96.3212L109.554 95.9688C109.921 95.8715 110.141 95.494 110.044 95.1262L109.691 93.7935C109.594 93.4257 109.216 93.2062 108.849 93.3034L107.516 93.6559C107.148 93.7532 106.929 94.1307 107.026 94.4985L107.378 95.8312C107.476 96.199 107.853 96.4185 108.221 96.3212ZM109.631 101.652L110.963 101.299C111.331 101.202 111.551 100.825 111.454 100.456L111.101 99.1238C111.004 98.756 110.626 98.5365 110.258 98.6337L108.926 98.9862C108.558 99.0835 108.338 99.461 108.436 99.8288L108.788 101.161C108.886 101.53 109.263 101.749 109.631 101.652ZM104.928 100.044L103.595 100.396C103.227 100.493 103.008 100.871 103.105 101.239L103.458 102.571C103.555 102.94 103.932 103.159 104.3 103.062L105.633 102.709C106.001 102.612 106.22 102.235 106.123 101.866L105.77 100.534C105.673 100.166 105.296 99.9464 104.928 100.044ZM103.518 94.7134L102.185 95.0659C101.817 95.1632 101.598 95.5406 101.695 95.9085L102.048 97.2411C102.145 97.6089 102.522 97.8285 102.89 97.7312L104.223 97.3787C104.591 97.2814 104.81 96.904 104.713 96.5361L104.361 95.2035C104.263 94.8353 103.886 94.6161 103.518 94.7134ZM98.1873 96.1233L96.8547 96.4758C96.4868 96.5731 96.2673 96.9506 96.3646 97.3184L96.7171 98.6511C96.8143 99.0189 97.1918 99.2384 97.5596 99.1411L98.8923 98.7887C99.2601 98.6914 99.4797 98.3139 99.3824 97.9461L99.0299 96.6134C98.9325 96.2453 98.5551 96.0261 98.1873 96.1233ZM99.5972 101.454L98.2645 101.806C97.8967 101.903 97.6771 102.281 97.7744 102.649L98.1269 103.981C98.2243 104.35 98.6017 104.569 98.9695 104.471L100.302 104.119C100.67 104.022 100.89 103.645 100.792 103.276L100.44 101.944C100.343 101.576 99.965 101.356 99.5972 101.454Z" fill="white" fill-opacity="0.5"/>
</g>
<path d="M149.122 66.2216L139.274 78.3632C139.095 78.5828 139.012 78.8641 139.041 79.1452C139.071 79.4264 139.21 79.6844 139.43 79.8625L149.364 87.9205C149.584 88.0986 149.865 88.1822 150.146 88.1528C150.427 88.1235 150.685 87.9837 150.863 87.7641L151.613 86.8397C151.654 86.7869 151.68 86.7237 151.688 86.6572C151.695 86.5907 151.684 86.5234 151.656 86.4627C151.278 85.674 151.131 84.7941 151.233 83.9253C151.336 83.0566 151.682 82.2348 152.233 81.5555C152.785 80.8761 153.517 80.3672 154.346 80.088C155.175 79.8087 156.066 79.7705 156.916 79.9779C156.981 79.993 157.049 79.9898 157.113 79.9687C157.176 79.9476 157.233 79.9094 157.276 79.8583L160.712 75.6225C160.89 75.4029 160.974 75.1216 160.944 74.8404C160.915 74.5593 160.775 74.3013 160.556 74.1232L150.621 66.0652C150.402 65.8871 150.121 65.8035 149.839 65.8329C149.558 65.8622 149.3 66.002 149.122 66.2216V66.2216ZM160.108 74.6751C160.181 74.7344 160.228 74.8204 160.237 74.9141C160.247 75.0079 160.219 75.1016 160.16 75.1748L156.864 79.2381C155.498 78.9714 154.082 79.2459 152.915 80.0036C153.016 79.3105 152.887 78.6034 152.547 77.9908C152.208 77.3783 151.676 76.8941 151.035 76.6129C150.393 76.3316 149.677 76.2687 148.997 76.4338C148.316 76.599 147.708 76.983 147.267 77.527C146.826 78.071 146.575 78.7447 146.554 79.4449C146.533 80.145 146.742 80.8326 147.15 81.4023C147.557 81.9719 148.141 82.392 148.81 82.5979C149.48 82.8039 150.198 82.7843 150.856 82.5423C150.355 83.8408 150.379 85.2831 150.921 86.5645L150.311 87.3165C150.251 87.3877 150.165 87.4328 150.072 87.4425C149.979 87.4522 149.886 87.4258 149.812 87.3686L139.878 79.3106C139.804 79.2513 139.758 79.1653 139.748 79.0715C139.738 78.9778 139.766 78.884 139.825 78.8109L149.674 66.6692C149.733 66.596 149.819 66.5494 149.913 66.5397C150.007 66.5299 150.101 66.5577 150.174 66.6171L160.108 74.6751ZM151.685 81.1107C151.375 81.4927 150.959 81.7743 150.489 81.9198C150.019 82.0653 149.517 82.0681 149.045 81.928C148.574 81.7879 148.154 81.5112 147.84 81.1327C147.526 80.7542 147.331 80.2911 147.28 79.8018C147.229 79.3125 147.324 78.8191 147.553 78.384C147.783 77.9488 148.136 77.5915 148.569 77.3571C149.001 77.1227 149.493 77.0219 149.983 77.0673C150.473 77.1127 150.938 77.3023 151.32 77.6122C151.831 78.0291 152.155 78.6309 152.224 79.2863C152.292 79.9417 152.098 80.5975 151.685 81.1107V81.1107ZM150.487 69.6158L157.109 74.9877C157.182 75.0471 157.229 75.1331 157.239 75.2268C157.249 75.3206 157.221 75.4143 157.161 75.4875L156.266 76.5913C156.207 76.6645 156.121 76.7111 156.027 76.7209C155.933 76.7306 155.839 76.7028 155.766 76.6434C155.693 76.5841 155.646 76.498 155.637 76.4043C155.627 76.3106 155.655 76.2168 155.714 76.1436L156.386 75.3158L150.315 70.3915L143.6 78.6699L144.428 79.3414C144.501 79.4008 144.547 79.4868 144.557 79.5805C144.567 79.6742 144.539 79.768 144.48 79.8412C144.42 79.9144 144.334 79.961 144.241 79.9707C144.147 79.9805 144.053 79.9526 143.98 79.8933L142.876 78.998C142.803 78.9386 142.756 78.8526 142.747 78.7589C142.737 78.6651 142.765 78.5714 142.824 78.4982L149.987 69.6679C150.046 69.5947 150.132 69.5481 150.226 69.5383C150.32 69.5286 150.413 69.5564 150.487 69.6158Z" fill="white" fill-opacity="0.5"/>
<path d="M50.061 30.0607L50.4812 30.2821L50.3693 30.4944L49.9491 30.2729L50.061 30.0607ZM51.3576 30.7442L51.7777 30.9656L51.6658 31.1779L51.2457 30.9564L51.3576 30.7442Z" fill="white" fill-opacity="0.5"/>
<g clip-path="url(#clip4_73_35)">
<path d="M46.8328 20.582L45.0551 19.7058C44.8102 19.5851 44.5125 19.6863 44.3918 19.9312L43.8077 21.1163C43.687 21.3612 43.7881 21.6589 44.033 21.7796L45.8107 22.6557C46.0556 22.7765 46.3533 22.6753 46.474 22.4304L47.0581 21.2453C47.1788 21.0004 47.0777 20.7027 46.8328 20.582ZM44.9194 21.8484L44.179 21.4835C44.1397 21.4641 44.1098 21.4299 44.0957 21.3884C44.0816 21.3469 44.0845 21.3016 44.1038 21.2622L44.6879 20.0771C44.7073 20.0379 44.7415 20.0079 44.783 19.9938C44.8245 19.9798 44.8698 19.9827 44.9092 20.002L45.6499 20.367L44.9198 21.8486L44.9194 21.8484ZM46.1774 22.2846C46.158 22.3239 46.1238 22.3538 46.0823 22.3679C46.0409 22.382 45.9955 22.3791 45.9562 22.3598L45.2154 21.9947L45.9456 20.5132L46.6864 20.8782C46.7256 20.8977 46.7555 20.9319 46.7696 20.9734C46.7837 21.0148 46.7808 21.0602 46.7615 21.0995L46.1774 22.2846V22.2846ZM45.2995 23.693L43.5218 22.8168C43.2769 22.6961 42.9792 22.7972 42.8585 23.0422L42.2744 24.2273C42.1537 24.4722 42.2549 24.7699 42.4998 24.8906L44.2774 25.7667C44.5224 25.8874 44.8201 25.7863 44.9408 25.5414L45.5249 24.3563C45.6456 24.1114 45.5444 23.8137 45.2995 23.693ZM43.3862 24.9594L42.6457 24.5945C42.6065 24.575 42.5765 24.5408 42.5624 24.4994C42.5484 24.4579 42.5513 24.4125 42.5706 24.3732L43.1546 23.1881C43.1741 23.1489 43.2083 23.1189 43.2498 23.1048C43.2912 23.0907 43.3366 23.0937 43.3759 23.1129L44.1167 23.478L43.3865 24.9596L43.3862 24.9594ZM44.6443 25.3953C44.6249 25.4345 44.5907 25.4645 44.5492 25.4786C44.5078 25.4926 44.4624 25.4897 44.4231 25.4705L43.6823 25.1054L44.4125 23.6238L45.1533 23.9889C45.1925 24.0084 45.2224 24.0426 45.2365 24.084C45.2506 24.1255 45.2477 24.1709 45.2284 24.2102L44.6443 25.3953ZM43.8393 26.6557L42.0616 25.7796C41.8167 25.6589 41.519 25.76 41.3983 26.0049L40.8142 27.19C40.6935 27.435 40.7946 27.7327 41.0396 27.8534L42.8172 28.7295C43.0621 28.8502 43.3598 28.7491 43.4806 28.5042L44.0646 27.319C44.1853 27.0741 44.0842 26.7764 43.8393 26.6557ZM41.926 27.9222L41.1855 27.5573C41.1463 27.5378 41.1163 27.5036 41.1022 27.4621C41.0881 27.4207 41.0911 27.3753 41.1103 27.336L41.6944 26.1509C41.7139 26.1116 41.7481 26.0817 41.7895 26.0676C41.831 26.0535 41.8764 26.0564 41.9157 26.0757L42.6565 26.4408L41.9263 27.9223L41.926 27.9222ZM43.1841 28.3581C43.1647 28.3973 43.1305 28.4272 43.089 28.4413C43.0475 28.4554 43.0022 28.4525 42.9629 28.4332L42.2221 28.0681L42.9523 26.5866L43.693 26.9517C43.7323 26.9711 43.7622 27.0053 43.7763 27.0468C43.7904 27.0883 43.7875 27.1336 43.7682 27.1729L43.1841 28.3581ZM57.4275 26.3563L56.8434 27.5414C56.7227 27.7863 56.8238 28.084 57.0688 28.2047L58.8464 29.0809C59.0913 29.2016 59.389 29.1004 59.5097 28.8555L60.0938 27.6704C60.2145 27.4255 60.1134 27.1278 59.8685 27.0071L58.0908 26.1309C57.973 26.073 57.8369 26.0641 57.7125 26.1064C57.5882 26.1486 57.4856 26.2385 57.4275 26.3563V26.3563ZM58.9821 26.9383L59.7229 27.3033C59.7621 27.3228 59.792 27.357 59.8061 27.3985C59.8202 27.4399 59.8173 27.4853 59.798 27.5246L59.2139 28.7097C59.1945 28.749 59.1603 28.7789 59.1188 28.793C59.0774 28.8071 59.032 28.8042 58.9927 28.7849L58.2519 28.4198L58.9821 26.9383V26.9383ZM57.9556 28.2734L57.2149 27.9083C57.1756 27.8888 57.1457 27.8546 57.1316 27.8132C57.1175 27.7717 57.1204 27.7263 57.1397 27.687L57.7238 26.5019C57.7432 26.4627 57.7774 26.4327 57.8189 26.4186C57.8604 26.4046 57.9057 26.4075 57.945 26.4267L58.6858 26.7918L57.9556 28.2734ZM58.3357 30.1179L56.558 29.2418C56.3131 29.1211 56.0154 29.2222 55.8947 29.4671L55.3106 30.6522C55.1899 30.8971 55.291 31.1948 55.536 31.3155L57.3136 32.1917C57.5585 32.3124 57.8562 32.2113 57.977 31.9663L58.561 30.7812C58.6817 30.5363 58.5806 30.2386 58.3357 30.1179ZM56.4224 31.3844L55.6816 31.0193C55.6423 30.9998 55.6124 30.9656 55.5983 30.9242C55.5842 30.8827 55.5871 30.8373 55.6064 30.798L56.1905 29.6129C56.2099 29.5737 56.2441 29.5437 56.2856 29.5296C56.3271 29.5155 56.3724 29.5185 56.4118 29.5377L57.1525 29.9028L56.4224 31.3844ZM57.6805 31.8202C57.6611 31.8595 57.6269 31.8894 57.5854 31.9035C57.5439 31.9176 57.4986 31.9147 57.4592 31.8954L56.7185 31.5303L57.4487 30.0488L58.1894 30.4139C58.2287 30.4333 58.2586 30.4675 58.2727 30.509C58.2868 30.5504 58.2839 30.5958 58.2646 30.6351L57.6805 31.8202ZM56.8755 33.0807L55.0978 32.2045C54.8529 32.0838 54.5552 32.185 54.4345 32.4299L53.8504 33.615C53.7297 33.8599 53.8308 34.1576 54.0757 34.2783L55.8534 35.1544C56.0983 35.2752 56.396 35.174 56.5167 34.9291L57.1008 33.744C57.2215 33.4991 57.1204 33.2014 56.8755 33.0807ZM54.9621 34.3471L54.2214 33.982C54.1821 33.9626 54.1522 33.9284 54.1381 33.8869C54.124 33.8455 54.1269 33.8001 54.1462 33.7608L54.7303 32.5757C54.7497 32.5364 54.7839 32.5065 54.8254 32.4924C54.8669 32.4783 54.9122 32.4812 54.9516 32.5005L55.6923 32.8656L54.9621 34.3471ZM56.2203 34.783C56.2009 34.8222 56.1667 34.8522 56.1252 34.8663C56.0837 34.8804 56.0384 34.8774 55.999 34.8582L55.2583 34.4931L55.9884 33.0115L56.7292 33.3766C56.7685 33.3961 56.7984 33.4303 56.8125 33.4717C56.8266 33.5132 56.8237 33.5586 56.8044 33.5979L56.2203 34.783ZM48.417 23.9913C48.2781 23.853 48.2204 23.7845 48.2565 23.7111C48.2858 23.6517 48.3724 23.6307 48.4997 23.6935C48.6258 23.7557 48.7022 23.8334 48.7428 23.8809L48.9115 23.7036C48.8261 23.6115 48.7238 23.5366 48.6101 23.4832C48.3045 23.3325 48.0466 23.392 47.9501 23.5876C47.8681 23.7542 47.9559 23.929 48.1384 24.1015C48.2694 24.2269 48.3106 24.2987 48.2754 24.3701C48.2385 24.445 48.1431 24.4593 48.0088 24.3931C47.8843 24.3317 47.781 24.2368 47.7201 24.162L47.5549 24.3473C47.61 24.4189 47.7392 24.5249 47.8871 24.5978C48.242 24.7728 48.4894 24.6916 48.5842 24.4991C48.664 24.3373 48.6085 24.1788 48.417 23.9913V23.9913ZM49.7439 24.3091C49.8473 24.36 49.9203 24.4207 49.9683 24.4723L50.1291 24.2959C50.0894 24.2464 49.9878 24.1626 49.8361 24.0878C49.4445 23.8948 49.0221 23.9573 48.829 24.3492C48.6678 24.6762 48.7767 25.0363 49.2242 25.2568C49.3816 25.3344 49.5151 25.3688 49.5806 25.3712L49.6359 25.1467C49.5449 25.1326 49.4565 25.1048 49.3737 25.0642C49.113 24.9357 49.0309 24.715 49.1441 24.4852C49.2703 24.23 49.512 24.1948 49.7439 24.3091V24.3091ZM50.8802 25.1739L50.3983 24.9364L50.6157 24.4952L50.3224 24.3507L49.7569 25.4982L50.0502 25.6427L50.2869 25.1624L50.7689 25.3999L50.5321 25.8802L50.8238 26.024L51.3894 24.8765L51.0977 24.7328L50.8802 25.1739ZM52.2237 25.2645C51.8419 25.0764 51.4679 25.2114 51.2984 25.5552C51.1372 25.8823 51.2348 26.2501 51.6184 26.4392C51.9967 26.6257 52.3663 26.5238 52.5515 26.148C52.7075 25.8306 52.621 25.4603 52.2237 25.2645ZM51.7358 26.241C51.5399 26.1444 51.4992 25.9272 51.61 25.7025C51.7199 25.4794 51.9172 25.3692 52.1147 25.4665C52.3163 25.5659 52.3402 25.798 52.2387 26.0041C52.1287 26.2272 51.933 26.3381 51.7358 26.241ZM53.6003 25.943C53.2182 25.7547 52.8442 25.8897 52.6747 26.2335C52.5135 26.5606 52.6111 26.9284 52.9947 27.1175C53.3734 27.3041 53.7429 27.2023 53.9281 26.8265C54.0842 26.5091 53.9969 26.1385 53.6003 25.943V25.943ZM53.1118 26.9191C52.9158 26.8225 52.8752 26.6053 52.986 26.3806C53.0959 26.1575 53.2932 26.0474 53.4907 26.1447C53.6927 26.2442 53.7162 26.4762 53.6146 26.6822C53.5047 26.9054 53.3093 27.0165 53.1118 26.9191ZM54.6903 26.5034L54.3967 26.3587L53.8311 27.5062L54.6392 27.9045L54.7467 27.6864L54.2322 27.4328L54.6903 26.5034ZM55.047 23.3416C55.3181 22.7915 55.3596 22.1563 55.1623 21.5756C54.9651 20.9949 54.5452 20.5164 53.9951 20.2453C53.4451 19.9742 52.8098 19.9327 52.2291 20.13C51.6485 20.3272 51.1699 20.7471 50.8988 21.2972C50.6277 21.8473 50.5862 22.4825 50.7835 23.0632C50.9807 23.6439 51.4006 24.1224 51.9507 24.3935C52.5008 24.6646 53.136 24.7061 53.7167 24.5088C54.2974 24.3116 54.7759 23.8917 55.047 23.3416V23.3416ZM51.4917 21.5894C51.6855 21.1964 52.0274 20.8965 52.4423 20.7557C52.8572 20.6148 53.3111 20.6445 53.704 20.8383C54.097 21.0321 54.3969 21.3741 54.5378 21.789C54.6786 22.2039 54.6489 22.6577 54.4551 23.0507C54.2613 23.4437 53.9194 23.7436 53.5045 23.8844C53.0896 24.0253 52.6357 23.9955 52.2427 23.8017C51.8498 23.608 51.5499 23.266 51.409 22.8511C51.2682 22.4362 51.2979 21.9823 51.4917 21.5894Z" fill="white" fill-opacity="0.5"/>
<path d="M53.1235 22.762L53.7076 21.5769C53.788 21.4138 53.7203 21.2147 53.5573 21.1343C53.3942 21.054 53.1951 21.1216 53.1147 21.2847L52.6766 22.1737L52.3802 22.0276C52.2171 21.9472 52.018 22.0148 51.9376 22.1779C51.8573 22.341 51.9249 22.5401 52.088 22.6204L52.6808 22.9126C52.7596 22.9509 52.8503 22.9566 52.9332 22.9284C53.0161 22.9002 53.0845 22.8404 53.1235 22.762Z" fill="white" fill-opacity="0.5"/>
<path d="M57.1929 36.9197L56.8965 36.7736L61.5691 27.2927L61.7695 27.3914C62.1029 27.5558 62.3706 27.3911 62.3654 27.0264L62.3308 24.6443C62.3252 24.2794 62.0481 23.8463 61.715 23.6821L56.7031 21.212L55.3412 18.261L55.6979 17.5373C56.4169 19.0669 59.0721 16.6683 59.791 18.1983C59.4305 15.9412 57.134 17.6119 56.7735 15.3548L56.9195 15.0587C57.0001 14.8958 56.9325 14.6967 56.7694 14.6163C56.6064 14.5359 56.4073 14.6036 56.3269 14.7666L54.7485 17.9693L51.5785 18.6867L46.5673 16.2169C46.2339 16.0526 45.7215 16.0966 45.4291 16.3147L43.5189 17.7382C43.2261 17.9561 43.2589 18.2688 43.5923 18.4331L43.7927 18.5319L39.12 28.0127L38.8236 27.8666C38.745 27.8281 38.6543 27.8223 38.5714 27.8504C38.4885 27.8785 38.4201 27.9383 38.3812 28.0167L38.0891 28.6092C38.0507 28.6878 38.0449 28.7785 38.0731 28.8614C38.1013 28.9442 38.1612 29.0126 38.2396 29.0514L56.6088 38.1048C56.6874 38.1432 56.778 38.149 56.8608 38.1208C56.9436 38.0927 57.0119 38.0329 57.0509 37.9546L57.3429 37.362C57.3814 37.2834 57.3873 37.1928 57.3592 37.1099C57.3311 37.027 57.2713 36.9586 57.1929 36.9197V36.9197ZM43.2677 30.0566L39.7124 28.3043L44.3851 18.8234L47.2094 20.2154C47.1897 20.2698 47.1757 20.3237 47.1695 20.3761C47.1403 20.6307 47.2514 20.9726 47.6487 21.1684L43.268 30.0567L43.2677 30.0566ZM50.7644 34.7703L44.4438 31.6551L44.6775 31.1811L50.998 34.2962L50.7644 34.7703ZM46.2305 31.5168L47.9827 27.9615L49.6122 28.7645L47.8599 32.3199L46.2305 31.5168ZM48.1564 32.466L49.9086 28.9106L51.5381 29.7137L49.7858 33.269L48.1564 32.466ZM52.156 34.4372L50.3784 33.5611L52.1306 30.0058L52.7232 30.2978L53.0161 29.7034C53.0161 29.7034 51.5863 27.4695 51.167 26.6913C51.1117 26.5946 51.0288 26.5165 50.9288 26.4673C50.8289 26.418 50.7165 26.3998 50.606 26.4149C49.7335 26.5563 47.0909 26.7831 47.0909 26.7831L46.7979 27.3775L47.3902 27.6694L45.6379 31.2247L43.8603 30.3486L48.533 20.8677L47.9404 20.5757C47.7773 20.4953 47.7892 20.3955 47.9656 20.354L54.4037 18.8394C54.4919 18.8189 54.5878 18.834 54.6706 18.8748C54.7534 18.9156 54.8234 18.9823 54.8613 19.065L57.5817 25.0934C57.6563 25.2585 57.5843 25.3288 57.4213 25.2484L56.8287 24.9563L52.156 34.4372ZM56.3039 36.4815L52.7486 34.7293L57.1292 25.8409C57.5265 26.0367 57.8653 25.9166 58.0495 25.7383C58.0872 25.7015 58.1215 25.6575 58.1526 25.6088L60.9769 27.0008L56.3042 36.4817L56.3039 36.4815Z" fill="white" fill-opacity="0.5"/>
<path d="M48.0874 30.0381L48.5134 30.248L48.4073 30.4633L47.9813 30.2533L48.0874 30.0381ZM49.4021 30.686L49.8281 30.896L49.722 31.1112L49.296 30.9012L49.4021 30.686Z" fill="white" fill-opacity="0.5"/>
</g>
<defs>
<clipPath id="clip0_73_35">
<rect width="21.9314" height="21.9314" fill="white" transform="translate(0 44.6503) rotate(-45.5287)"/>
</clipPath>
<clipPath id="clip1_73_35">
<rect width="22.5489" height="22.5489" fill="white" transform="translate(137.535) rotate(9.01962)"/>
</clipPath>
<clipPath id="clip2_73_35">
<rect width="22.74" height="22.74" fill="white" transform="translate(50.2231 77) rotate(26.7157)"/>
</clipPath>
<clipPath id="clip3_73_35">
<rect width="22.0558" height="22.0558" fill="white" transform="translate(90.0762 89.7159) rotate(-14.8154)"/>
</clipPath>
<clipPath id="clip4_73_35">
<rect width="22.5489" height="22.5489" fill="white" transform="translate(46.9683 9) rotate(26.2366)"/>
</clipPath>
</defs>
</svg>
