<svg width="21" height="21" viewBox="0 0 21 21" fill="none" xmlns="http://www.w3.org/2000/svg">
<path d="M12.9381 4C13.9149 4.19057 14.8125 4.66826 15.5162 5.37194C16.2199 6.07561 16.6976 6.97326 16.8881 7.95L12.9381 4ZM12.9381 0C14.9674 0.225436 16.8597 1.13417 18.3044 2.57701C19.749 4.01984 20.6601 5.91101 20.8881 7.94L12.9381 0ZM19.8881 15.92V18.92C19.8892 19.1985 19.8322 19.4742 19.7206 19.7293C19.6091 19.9845 19.4454 20.2136 19.2402 20.4019C19.035 20.5901 18.7927 20.7335 18.5289 20.8227C18.265 20.9119 17.9855 20.9451 17.7081 20.92C14.631 20.5856 11.6751 19.5341 9.07812 17.85C6.66194 16.3147 4.61345 14.2662 3.07812 11.85C1.38809 9.2412 0.33636 6.27099 0.00811671 3.18C-0.0168728 2.90347 0.0159916 2.62476 0.104617 2.36162C0.193243 2.09849 0.335688 1.85669 0.522883 1.65162C0.710078 1.44655 0.937922 1.28271 1.19191 1.17052C1.44589 1.05833 1.72046 1.00026 1.99812 1H4.99812C5.48342 0.995224 5.95391 1.16708 6.32188 1.48353C6.68985 1.79999 6.93019 2.23945 6.99812 2.72C7.12474 3.68007 7.35957 4.62273 7.69812 5.53C7.83266 5.88792 7.86178 6.27691 7.78202 6.65088C7.70227 7.02485 7.51698 7.36811 7.24812 7.64L5.97812 8.91C7.40167 11.4135 9.47457 13.4864 11.9781 14.91L13.2481 13.64C13.52 13.3711 13.8633 13.1858 14.2372 13.1061C14.6112 13.0263 15.0002 13.0555 15.3581 13.19C16.2654 13.5286 17.2081 13.7634 18.1681 13.89C18.6539 13.9585 19.0975 14.2032 19.4146 14.5775C19.7318 14.9518 19.9003 15.4296 19.8881 15.92Z" fill="white"/>
</svg>
