<svg width="20" height="22" viewBox="0 0 20 22" fill="none" xmlns="http://www.w3.org/2000/svg">
<path d="M7 19.0001C2 20.5001 2 16.5001 0 16.0001L7 19.0001ZM14 22.0001V18.1301C14.0375 17.6532 13.9731 17.1739 13.811 16.7239C13.6489 16.2738 13.3929 15.8635 13.06 15.5201C16.2 15.1701 19.5 13.9801 19.5 8.52006C19.4997 7.12389 18.9627 5.78126 18 4.77006C18.4559 3.54857 18.4236 2.19841 17.91 1.00006C17.91 1.00006 16.73 0.65006 14 2.48006C11.708 1.85888 9.29199 1.85888 7 2.48006C4.27 0.65006 3.09 1.00006 3.09 1.00006C2.57638 2.19841 2.54414 3.54857 3 4.77006C2.03013 5.78876 1.49252 7.14352 1.5 8.55006C1.5 13.9701 4.8 15.1601 7.94 15.5501C7.611 15.89 7.35726 16.2955 7.19531 16.74C7.03335 17.1845 6.96681 17.6581 7 18.1301V22.0001" fill="white"/>
</svg>
